<svg xmlns="http://www.w3.org/2000/svg" viewBox="0 0 64 64">
  <title>Masters Tournament logo</title>
  <rect width="64" height="64" rx="12" fill="#FFDF00"/>
  <path d="M18.2 22.5c3.5-5.4 10.4-7.9 16.5-6.6 5.3 1.1 9.9 4.3 12.4 9.3 2.2 4.4 2.1 9.9-0.4 14.5-2.8 5.2-7.6 9.4-13.3 11.9-5.6 2.4-12.4 2.8-17.3-1.3-3.8-3.1-5.6-8.4-4.9-13.2 0.9-5.9 3.7-11.3 7-14.6z" fill="#006341"/>
  <path d="M33 14.5h2v24h-2z" fill="#006341"/>
  <path d="M35 16.5l10 3-10 3z" fill="#FFDF00" stroke="#006341" stroke-width="1.2" stroke-linejoin="round"/>
  <circle cx="37.5" cy="36" r="2.2" fill="#FFDF00" stroke="#f7f1d0" stroke-width="1.2"/>
</svg>
